<?xml version="1.0" encoding="UTF-8" standalone="no"?>
<!DOCTYPE svg PUBLIC "-//W3C//DTD SVG 1.1//EN"
 "http://www.w3.org/Graphics/SVG/1.1/DTD/svg11.dtd">
<!-- Generated by graphviz version 2.40.1 (20161225.0304)
 -->
<!-- Title: dependencies Pages: 1 -->
<svg width="1436pt" height="284pt"
 viewBox="0.00 0.00 1436.00 284.00" xmlns="http://www.w3.org/2000/svg" xmlns:xlink="http://www.w3.org/1999/xlink">
<g id="graph0" class="graph" transform="scale(1 1) rotate(0) translate(4 280)">
<title>dependencies</title>
<polygon fill="#ffffff" stroke="transparent" points="-4,4 -4,-280 1432,-280 1432,4 -4,4"/>
<text text-anchor="start" x="693.0091" y="-42.4" font-family="sans-serif" font-weight="bold" font-size="14.00" fill="#000000">Legend</text>
<polygon fill="#ffffb3" stroke="transparent" points="480,-10 480,-30 500,-30 500,-10 480,-10"/>
<text text-anchor="start" x="503.629" y="-15.4" font-family="sans-serif" font-size="14.00" fill="#000000"> &#160;Declarations</text>
<polygon fill="#8dd3c7" stroke="transparent" points="593,-10 593,-30 613,-30 613,-10 593,-10"/>
<text text-anchor="start" x="616.7251" y="-15.4" font-family="sans-serif" font-size="14.00" fill="#000000"> &#160;Module</text>
<polygon fill="#80b1d3" stroke="transparent" points="679,-10 679,-30 699,-30 699,-10 679,-10"/>
<text text-anchor="start" x="702.7812" y="-15.4" font-family="sans-serif" font-size="14.00" fill="#000000"> &#160;Bootstrap</text>
<polygon fill="#fdb462" stroke="transparent" points="776,-10 776,-30 796,-30 796,-10 776,-10"/>
<text text-anchor="start" x="799.6732" y="-15.4" font-family="sans-serif" font-size="14.00" fill="#000000"> &#160;Providers</text>
<polygon fill="#fb8072" stroke="transparent" points="872,-10 872,-30 892,-30 892,-10 872,-10"/>
<text text-anchor="start" x="895.7258" y="-15.4" font-family="sans-serif" font-size="14.00" fill="#000000"> &#160;Exports</text>
<g id="clust1" class="cluster">
<title>cluster_AppModule</title>
<polygon fill="none" stroke="#000000" stroke-dasharray="1,5" points="8,-70 8,-268 1420,-268 1420,-70 8,-70"/>
</g>
<g id="clust2" class="cluster">
<title>cluster_AppModule_declarations</title>
<polygon fill="none" stroke="#000000" points="1290,-78 1290,-130 1412,-130 1412,-78 1290,-78"/>
</g>
<g id="clust4" class="cluster">
<title>cluster_AppModule_imports</title>
<polygon fill="none" stroke="#000000" points="342,-78 342,-130 1282,-130 1282,-78 342,-78"/>
</g>
<g id="clust6" class="cluster">
<title>cluster_AppModule_bootstrap</title>
<polygon fill="none" stroke="#000000" points="701,-208 701,-260 825,-260 825,-208 701,-208"/>
</g>
<g id="clust7" class="cluster">
<title>cluster_AppModule_providers</title>
<polygon fill="none" stroke="#000000" points="16,-78 16,-130 334,-130 334,-78 16,-78"/>
</g>
<!-- AppComponent -->
<g id="node1" class="node">
<title>AppComponent</title>
<polygon fill="#ffffb3" stroke="#000000" points="1403.9399,-122 1298.0601,-122 1298.0601,-86 1403.9399,-86 1403.9399,-122"/>
<text text-anchor="middle" x="1351" y="-99.8" font-family="Times,serif" font-size="14.00" fill="#000000">AppComponent</text>
</g>
<!-- AppModule -->
<g id="node2" class="node">
<title>AppModule</title>
<polygon fill="#8dd3c7" stroke="#000000" points="804.6571,-187 801.6571,-191 780.6571,-191 777.6571,-187 721.3429,-187 721.3429,-151 804.6571,-151 804.6571,-187"/>
<text text-anchor="middle" x="763" y="-164.8" font-family="Times,serif" font-size="14.00" fill="#000000">AppModule</text>
</g>
<!-- AppComponent&#45;&gt;AppModule -->
<g id="edge1" class="edge">
<title>AppComponent&#45;&gt;AppModule</title>
<path fill="none" stroke="#000000" d="M1351,-122.0109C1351,-144.4852 1351,-180 1351,-180 1351,-180 814.8161,-180 814.8161,-180"/>
<polygon fill="#000000" stroke="#000000" points="814.8162,-176.5001 804.8161,-180 814.8161,-183.5001 814.8162,-176.5001"/>
</g>
<!-- AppComponent  -->
<g id="node9" class="node">
<title>AppComponent </title>
<polygon fill="#80b1d3" stroke="#000000" points="817.439,-252 708.561,-252 708.561,-216 817.439,-216 817.439,-252"/>
<text text-anchor="middle" x="763" y="-229.8" font-family="Times,serif" font-size="14.00" fill="#000000">AppComponent </text>
</g>
<!-- AppModule&#45;&gt;AppComponent  -->
<g id="edge8" class="edge">
<title>AppModule&#45;&gt;AppComponent </title>
<path fill="none" stroke="#000000" stroke-dasharray="1,5" d="M763,-187.1061C763,-187.1061 763,-205.991 763,-205.991"/>
<polygon fill="#000000" stroke="#000000" points="759.5001,-205.9909 763,-215.991 766.5001,-205.991 759.5001,-205.9909"/>
</g>
<!-- AppRoutingModule -->
<g id="node3" class="node">
<title>AppRoutingModule</title>
<polygon fill="#8dd3c7" stroke="#000000" points="1274.2744,-122 1271.2744,-126 1250.2744,-126 1247.2744,-122 1145.7256,-122 1145.7256,-86 1274.2744,-86 1274.2744,-122"/>
<text text-anchor="middle" x="1210" y="-99.8" font-family="Times,serif" font-size="14.00" fill="#000000">AppRoutingModule</text>
</g>
<!-- AppRoutingModule&#45;&gt;AppModule -->
<g id="edge2" class="edge">
<title>AppRoutingModule&#45;&gt;AppModule</title>
<path fill="none" stroke="#000000" d="M1210,-122.1289C1210,-142.5724 1210,-173 1210,-173 1210,-173 815.0527,-173 815.0527,-173"/>
<polygon fill="#000000" stroke="#000000" points="815.0527,-169.5001 805.0527,-173 815.0526,-176.5001 815.0527,-169.5001"/>
</g>
<!-- ColorPickerPageModule -->
<g id="node4" class="node">
<title>ColorPickerPageModule</title>
<polygon fill="#8dd3c7" stroke="#000000" points="1127.413,-122 1124.413,-126 1103.413,-126 1100.413,-122 972.587,-122 972.587,-86 1127.413,-86 1127.413,-122"/>
<text text-anchor="middle" x="1050" y="-99.8" font-family="Times,serif" font-size="14.00" fill="#000000">ColorPickerPageModule</text>
</g>
<!-- ColorPickerPageModule&#45;&gt;AppModule -->
<g id="edge3" class="edge">
<title>ColorPickerPageModule&#45;&gt;AppModule</title>
<path fill="none" stroke="#000000" d="M1050,-122.2667C1050,-140.5552 1050,-166 1050,-166 1050,-166 814.7323,-166 814.7323,-166"/>
<polygon fill="#000000" stroke="#000000" points="814.7323,-162.5001 804.7323,-166 814.7322,-169.5001 814.7323,-162.5001"/>
</g>
<!-- HivePageModule -->
<g id="node5" class="node">
<title>HivePageModule</title>
<polygon fill="#8dd3c7" stroke="#000000" points="954.9734,-122 951.9734,-126 930.9734,-126 927.9734,-122 841.0266,-122 841.0266,-86 954.9734,-86 954.9734,-122"/>
<text text-anchor="middle" x="898" y="-99.8" font-family="Times,serif" font-size="14.00" fill="#000000">HivePageModule</text>
</g>
<!-- HivePageModule&#45;&gt;AppModule -->
<g id="edge4" class="edge">
<title>HivePageModule&#45;&gt;AppModule</title>
<path fill="none" stroke="#000000" d="M898,-122.0091C898,-138.0494 898,-159 898,-159 898,-159 814.9748,-159 814.9748,-159"/>
<polygon fill="#000000" stroke="#000000" points="814.9749,-155.5001 804.9748,-159 814.9748,-162.5001 814.9749,-155.5001"/>
</g>
<!-- MenuPageModule -->
<g id="node6" class="node">
<title>MenuPageModule</title>
<polygon fill="#8dd3c7" stroke="#000000" points="822.9215,-122 819.9215,-126 798.9215,-126 795.9215,-122 703.0785,-122 703.0785,-86 822.9215,-86 822.9215,-122"/>
<text text-anchor="middle" x="763" y="-99.8" font-family="Times,serif" font-size="14.00" fill="#000000">MenuPageModule</text>
</g>
<!-- MenuPageModule&#45;&gt;AppModule -->
<g id="edge5" class="edge">
<title>MenuPageModule&#45;&gt;AppModule</title>
<path fill="none" stroke="#000000" d="M763,-122.1061C763,-122.1061 763,-140.991 763,-140.991"/>
<polygon fill="#000000" stroke="#000000" points="759.5001,-140.9909 763,-150.991 766.5001,-140.991 759.5001,-140.9909"/>
</g>
<!-- MoreButtonPageModule -->
<g id="node7" class="node">
<title>MoreButtonPageModule</title>
<polygon fill="#8dd3c7" stroke="#000000" points="685.6993,-122 682.6993,-126 661.6993,-126 658.6993,-122 530.3007,-122 530.3007,-86 685.6993,-86 685.6993,-122"/>
<text text-anchor="middle" x="608" y="-99.8" font-family="Times,serif" font-size="14.00" fill="#000000">MoreButtonPageModule</text>
</g>
<!-- MoreButtonPageModule&#45;&gt;AppModule -->
<g id="edge6" class="edge">
<title>MoreButtonPageModule&#45;&gt;AppModule</title>
<path fill="none" stroke="#000000" d="M608,-122.0091C608,-138.0494 608,-159 608,-159 608,-159 711.0548,-159 711.0548,-159"/>
<polygon fill="#000000" stroke="#000000" points="711.0548,-162.5001 721.0548,-159 711.0547,-155.5001 711.0548,-162.5001"/>
</g>
<!-- SmileyPickerPageModule -->
<g id="node8" class="node">
<title>SmileyPickerPageModule</title>
<polygon fill="#8dd3c7" stroke="#000000" points="512.1937,-122 509.1937,-126 488.1937,-126 485.1937,-122 349.8063,-122 349.8063,-86 512.1937,-86 512.1937,-122"/>
<text text-anchor="middle" x="431" y="-99.8" font-family="Times,serif" font-size="14.00" fill="#000000">SmileyPickerPageModule</text>
</g>
<!-- SmileyPickerPageModule&#45;&gt;AppModule -->
<g id="edge7" class="edge">
<title>SmileyPickerPageModule&#45;&gt;AppModule</title>
<path fill="none" stroke="#000000" d="M431,-122.2667C431,-140.5552 431,-166 431,-166 431,-166 711.2881,-166 711.2881,-166"/>
<polygon fill="#000000" stroke="#000000" points="711.2882,-169.5001 721.2881,-166 711.2881,-162.5001 711.2882,-169.5001"/>
</g>
<!-- FireAuthService -->
<g id="node10" class="node">
<title>FireAuthService</title>
<ellipse fill="#fdb462" stroke="#000000" cx="251" cy="-104" rx="74.7149" ry="18"/>
<text text-anchor="middle" x="251" y="-99.8" font-family="Times,serif" font-size="14.00" fill="#000000">FireAuthService</text>
</g>
<!-- FireAuthService&#45;&gt;AppModule -->
<g id="edge9" class="edge">
<title>FireAuthService&#45;&gt;AppModule</title>
<path fill="none" stroke="#000000" d="M251,-122.1289C251,-142.5724 251,-173 251,-173 251,-173 711.1009,-173 711.1009,-173"/>
<polygon fill="#000000" stroke="#000000" points="711.1009,-176.5001 721.1009,-173 711.1009,-169.5001 711.1009,-176.5001"/>
</g>
<!-- FireDbService -->
<g id="node11" class="node">
<title>FireDbService</title>
<ellipse fill="#fdb462" stroke="#000000" cx="91" cy="-104" rx="67.1907" ry="18"/>
<text text-anchor="middle" x="91" y="-99.8" font-family="Times,serif" font-size="14.00" fill="#000000">FireDbService</text>
</g>
<!-- FireDbService&#45;&gt;AppModule -->
<g id="edge10" class="edge">
<title>FireDbService&#45;&gt;AppModule</title>
<path fill="none" stroke="#000000" d="M91,-122.0109C91,-144.4852 91,-180 91,-180 91,-180 711.2173,-180 711.2173,-180"/>
<polygon fill="#000000" stroke="#000000" points="711.2173,-183.5001 721.2173,-180 711.2173,-176.5001 711.2173,-183.5001"/>
</g>
</g>
</svg>
