<?xml version="1.0" encoding="UTF-8" standalone="no"?>
<!DOCTYPE svg PUBLIC "-//W3C//DTD SVG 1.1//EN"
 "http://www.w3.org/Graphics/SVG/1.1/DTD/svg11.dtd">
<!-- Generated by graphviz version 2.40.1 (20161225.0304)
 -->
<!-- Title: dependencies Pages: 1 -->
<svg width="3231pt" height="366pt"
 viewBox="0.00 0.00 3231.00 366.00" xmlns="http://www.w3.org/2000/svg" xmlns:xlink="http://www.w3.org/1999/xlink">
<g id="graph0" class="graph" transform="scale(1 1) rotate(0) translate(4 362)">
<title>dependencies</title>
<polygon fill="#ffffff" stroke="transparent" points="-4,4 -4,-362 3227,-362 3227,4 -4,4"/>
<text text-anchor="start" x="1590.5091" y="-42.4" font-family="sans-serif" font-weight="bold" font-size="14.00" fill="#000000">Legend</text>
<polygon fill="#ffffb3" stroke="transparent" points="1377.5,-10 1377.5,-30 1397.5,-30 1397.5,-10 1377.5,-10"/>
<text text-anchor="start" x="1401.129" y="-15.4" font-family="sans-serif" font-size="14.00" fill="#000000"> &#160;Declarations</text>
<polygon fill="#8dd3c7" stroke="transparent" points="1490.5,-10 1490.5,-30 1510.5,-30 1510.5,-10 1490.5,-10"/>
<text text-anchor="start" x="1514.2251" y="-15.4" font-family="sans-serif" font-size="14.00" fill="#000000"> &#160;Module</text>
<polygon fill="#80b1d3" stroke="transparent" points="1576.5,-10 1576.5,-30 1596.5,-30 1596.5,-10 1576.5,-10"/>
<text text-anchor="start" x="1600.2812" y="-15.4" font-family="sans-serif" font-size="14.00" fill="#000000"> &#160;Bootstrap</text>
<polygon fill="#fdb462" stroke="transparent" points="1673.5,-10 1673.5,-30 1693.5,-30 1693.5,-10 1673.5,-10"/>
<text text-anchor="start" x="1697.1732" y="-15.4" font-family="sans-serif" font-size="14.00" fill="#000000"> &#160;Providers</text>
<polygon fill="#fb8072" stroke="transparent" points="1769.5,-10 1769.5,-30 1789.5,-30 1789.5,-10 1769.5,-10"/>
<text text-anchor="start" x="1793.2258" y="-15.4" font-family="sans-serif" font-size="14.00" fill="#000000"> &#160;Exports</text>
<g id="clust1" class="cluster">
<title>cluster_AppModule</title>
<polygon fill="none" stroke="#000000" stroke-dasharray="1,5" points="8,-146 8,-350 1421,-350 1421,-146 8,-146"/>
</g>
<g id="clust2" class="cluster">
<title>cluster_AppModule_declarations</title>
<polygon fill="none" stroke="#000000" points="342,-154 342,-206 464,-206 464,-154 342,-154"/>
</g>
<g id="clust4" class="cluster">
<title>cluster_AppModule_imports</title>
<polygon fill="none" stroke="#000000" points="472,-154 472,-206 1413,-206 1413,-154 472,-154"/>
</g>
<g id="clust6" class="cluster">
<title>cluster_AppModule_bootstrap</title>
<polygon fill="none" stroke="#000000" points="642,-290 642,-342 766,-342 766,-290 642,-290"/>
</g>
<g id="clust7" class="cluster">
<title>cluster_AppModule_providers</title>
<polygon fill="none" stroke="#000000" points="16,-154 16,-206 334,-206 334,-154 16,-154"/>
</g>
<g id="clust14" class="cluster">
<title>cluster_AuthenticationPageModule</title>
<polygon fill="none" stroke="#000000" stroke-dasharray="1,5" points="1429,-70 1429,-206 1615,-206 1615,-70 1429,-70"/>
</g>
<g id="clust15" class="cluster">
<title>cluster_AuthenticationPageModule_declarations</title>
<polygon fill="none" stroke="#000000" points="1451,-78 1451,-130 1593,-130 1593,-78 1451,-78"/>
</g>
<g id="clust21" class="cluster">
<title>cluster_ColorPickerPageModule</title>
<polygon fill="none" stroke="#000000" stroke-dasharray="1,5" points="633,-70 633,-138 775,-138 775,-70 633,-70"/>
</g>
<g id="clust22" class="cluster">
<title>cluster_ColorPickerPageModule_declarations</title>
<polygon fill="none" stroke="#000000" points="641,-78 641,-130 767,-130 767,-78 641,-78"/>
</g>
<g id="clust28" class="cluster">
<title>cluster_EntryPageModule</title>
<polygon fill="none" stroke="#000000" stroke-dasharray="1,5" points="1623,-70 1623,-206 1757,-206 1757,-70 1623,-70"/>
</g>
<g id="clust29" class="cluster">
<title>cluster_EntryPageModule_declarations</title>
<polygon fill="none" stroke="#000000" points="1645,-78 1645,-130 1735,-130 1735,-78 1645,-78"/>
</g>
<g id="clust35" class="cluster">
<title>cluster_HiveCardFormPageModule</title>
<polygon fill="none" stroke="#000000" stroke-dasharray="1,5" points="1765,-70 1765,-206 1953,-206 1953,-70 1765,-70"/>
</g>
<g id="clust36" class="cluster">
<title>cluster_HiveCardFormPageModule_declarations</title>
<polygon fill="none" stroke="#000000" points="1787,-78 1787,-130 1931,-130 1931,-78 1787,-78"/>
</g>
<g id="clust42" class="cluster">
<title>cluster_HivedetailPageModule</title>
<polygon fill="none" stroke="#000000" stroke-dasharray="1,5" points="1961,-70 1961,-206 2123,-206 2123,-70 1961,-70"/>
</g>
<g id="clust43" class="cluster">
<title>cluster_HivedetailPageModule_declarations</title>
<polygon fill="none" stroke="#000000" points="1983,-78 1983,-130 2101,-130 2101,-78 1983,-78"/>
</g>
<g id="clust49" class="cluster">
<title>cluster_HiveFormPageModule</title>
<polygon fill="none" stroke="#000000" stroke-dasharray="1,5" points="2131,-70 2131,-206 2291,-206 2291,-70 2131,-70"/>
</g>
<g id="clust50" class="cluster">
<title>cluster_HiveFormPageModule_declarations</title>
<polygon fill="none" stroke="#000000" points="2153,-78 2153,-130 2269,-130 2269,-78 2153,-78"/>
</g>
<g id="clust56" class="cluster">
<title>cluster_HivePageModule</title>
<polygon fill="none" stroke="#000000" stroke-dasharray="1,5" points="1429,-214 1429,-282 1629,-282 1629,-214 1429,-214"/>
</g>
<g id="clust57" class="cluster">
<title>cluster_HivePageModule_declarations</title>
<polygon fill="none" stroke="#000000" points="1535,-222 1535,-274 1621,-274 1621,-222 1535,-222"/>
</g>
<g id="clust60" class="cluster">
<title>cluster_HivePageModule_exports</title>
<polygon fill="none" stroke="#000000" points="1437,-222 1437,-274 1527,-274 1527,-222 1437,-222"/>
</g>
<g id="clust63" class="cluster">
<title>cluster_InvitePageModule</title>
<polygon fill="none" stroke="#000000" stroke-dasharray="1,5" points="2299,-70 2299,-206 2435,-206 2435,-70 2299,-70"/>
</g>
<g id="clust64" class="cluster">
<title>cluster_InvitePageModule_declarations</title>
<polygon fill="none" stroke="#000000" points="2321,-78 2321,-130 2413,-130 2413,-78 2321,-78"/>
</g>
<g id="clust70" class="cluster">
<title>cluster_LoginPageModule</title>
<polygon fill="none" stroke="#000000" stroke-dasharray="1,5" points="2443,-70 2443,-206 2579,-206 2579,-70 2443,-70"/>
</g>
<g id="clust71" class="cluster">
<title>cluster_LoginPageModule_declarations</title>
<polygon fill="none" stroke="#000000" points="2465,-78 2465,-130 2557,-130 2557,-78 2465,-78"/>
</g>
<g id="clust77" class="cluster">
<title>cluster_MainPageModule</title>
<polygon fill="none" stroke="#000000" stroke-dasharray="1,5" points="2587,-70 2587,-206 2719,-206 2719,-70 2587,-70"/>
</g>
<g id="clust78" class="cluster">
<title>cluster_MainPageModule_declarations</title>
<polygon fill="none" stroke="#000000" points="2609,-78 2609,-130 2697,-130 2697,-78 2609,-78"/>
</g>
<g id="clust84" class="cluster">
<title>cluster_MenuPageModule</title>
<polygon fill="none" stroke="#000000" stroke-dasharray="1,5" points="1637,-214 1637,-282 1849,-282 1849,-214 1637,-214"/>
</g>
<g id="clust85" class="cluster">
<title>cluster_MenuPageModule_declarations</title>
<polygon fill="none" stroke="#000000" points="1749,-222 1749,-274 1841,-274 1841,-222 1749,-222"/>
</g>
<g id="clust88" class="cluster">
<title>cluster_MenuPageModule_exports</title>
<polygon fill="none" stroke="#000000" points="1645,-222 1645,-274 1741,-274 1741,-222 1645,-222"/>
</g>
<g id="clust91" class="cluster">
<title>cluster_MoreButtonPageModule</title>
<polygon fill="none" stroke="#000000" stroke-dasharray="1,5" points="805,-70 805,-138 949,-138 949,-70 805,-70"/>
</g>
<g id="clust92" class="cluster">
<title>cluster_MoreButtonPageModule_declarations</title>
<polygon fill="none" stroke="#000000" points="813,-78 813,-130 941,-130 941,-78 813,-78"/>
</g>
<g id="clust98" class="cluster">
<title>cluster_SettingsPageModule</title>
<polygon fill="none" stroke="#000000" stroke-dasharray="1,5" points="2727,-70 2727,-206 2875,-206 2875,-70 2727,-70"/>
</g>
<g id="clust99" class="cluster">
<title>cluster_SettingsPageModule_declarations</title>
<polygon fill="none" stroke="#000000" points="2749,-78 2749,-130 2853,-130 2853,-78 2749,-78"/>
</g>
<g id="clust105" class="cluster">
<title>cluster_SmileyPickerPageModule</title>
<polygon fill="none" stroke="#000000" stroke-dasharray="1,5" points="979,-70 979,-138 1129,-138 1129,-70 979,-70"/>
</g>
<g id="clust106" class="cluster">
<title>cluster_SmileyPickerPageModule_declarations</title>
<polygon fill="none" stroke="#000000" points="987,-78 987,-130 1121,-130 1121,-78 987,-78"/>
</g>
<g id="clust112" class="cluster">
<title>cluster_StartLoadingPageModule</title>
<polygon fill="none" stroke="#000000" stroke-dasharray="1,5" points="2883,-70 2883,-206 3215,-206 3215,-70 2883,-70"/>
</g>
<g id="clust113" class="cluster">
<title>cluster_StartLoadingPageModule_declarations</title>
<polygon fill="none" stroke="#000000" points="2891,-78 2891,-130 3207,-130 3207,-78 2891,-78"/>
</g>
<!-- AppComponent -->
<g id="node1" class="node">
<title>AppComponent</title>
<polygon fill="#ffffb3" stroke="#000000" points="455.9399,-198 350.0601,-198 350.0601,-162 455.9399,-162 455.9399,-198"/>
<text text-anchor="middle" x="403" y="-175.8" font-family="Times,serif" font-size="14.00" fill="#000000">AppComponent</text>
</g>
<!-- AppModule -->
<g id="node2" class="node">
<title>AppModule</title>
<polygon fill="#8dd3c7" stroke="#000000" points="745.6571,-266 742.6571,-270 721.6571,-270 718.6571,-266 662.3429,-266 662.3429,-230 745.6571,-230 745.6571,-266"/>
<text text-anchor="middle" x="704" y="-243.8" font-family="Times,serif" font-size="14.00" fill="#000000">AppModule</text>
</g>
<!-- AppComponent&#45;&gt;AppModule -->
<g id="edge1" class="edge">
<title>AppComponent&#45;&gt;AppModule</title>
<path fill="none" stroke="#000000" d="M403,-198.1061C403,-217.3391 403,-245 403,-245 403,-245 652.1472,-245 652.1472,-245"/>
<polygon fill="#000000" stroke="#000000" points="652.1473,-248.5001 662.1472,-245 652.1472,-241.5001 652.1473,-248.5001"/>
</g>
<!-- AppComponent  -->
<g id="node9" class="node">
<title>AppComponent </title>
<polygon fill="#80b1d3" stroke="#000000" points="758.439,-334 649.561,-334 649.561,-298 758.439,-298 758.439,-334"/>
<text text-anchor="middle" x="704" y="-311.8" font-family="Times,serif" font-size="14.00" fill="#000000">AppComponent </text>
</g>
<!-- AppModule&#45;&gt;AppComponent  -->
<g id="edge8" class="edge">
<title>AppModule&#45;&gt;AppComponent </title>
<path fill="none" stroke="#000000" stroke-dasharray="1,5" d="M704,-266.2228C704,-266.2228 704,-287.7269 704,-287.7269"/>
<polygon fill="#000000" stroke="#000000" points="700.5001,-287.7269 704,-297.7269 707.5001,-287.727 700.5001,-287.7269"/>
</g>
<!-- AppRoutingModule -->
<g id="node3" class="node">
<title>AppRoutingModule</title>
<polygon fill="#8dd3c7" stroke="#000000" points="608.2744,-198 605.2744,-202 584.2744,-202 581.2744,-198 479.7256,-198 479.7256,-162 608.2744,-162 608.2744,-198"/>
<text text-anchor="middle" x="544" y="-175.8" font-family="Times,serif" font-size="14.00" fill="#000000">AppRoutingModule</text>
</g>
<!-- AppRoutingModule&#45;&gt;AppModule -->
<g id="edge2" class="edge">
<title>AppRoutingModule&#45;&gt;AppModule</title>
<path fill="none" stroke="#000000" d="M544,-198.0336C544,-215.0597 544,-238 544,-238 544,-238 651.9619,-238 651.9619,-238"/>
<polygon fill="#000000" stroke="#000000" points="651.9619,-241.5001 661.9619,-238 651.9618,-234.5001 651.9619,-241.5001"/>
</g>
<!-- ColorPickerPageModule -->
<g id="node4" class="node">
<title>ColorPickerPageModule</title>
<polygon fill="#8dd3c7" stroke="#000000" points="781.413,-198 778.413,-202 757.413,-202 754.413,-198 626.587,-198 626.587,-162 781.413,-162 781.413,-198"/>
<text text-anchor="middle" x="704" y="-175.8" font-family="Times,serif" font-size="14.00" fill="#000000">ColorPickerPageModule</text>
</g>
<!-- ColorPickerPageModule&#45;&gt;AppModule -->
<g id="edge3" class="edge">
<title>ColorPickerPageModule&#45;&gt;AppModule</title>
<path fill="none" stroke="#000000" d="M704,-198.2228C704,-198.2228 704,-219.7269 704,-219.7269"/>
<polygon fill="#000000" stroke="#000000" points="700.5001,-219.7269 704,-229.7269 707.5001,-219.727 700.5001,-219.7269"/>
</g>
<!-- HivePageModule -->
<g id="node5" class="node">
<title>HivePageModule</title>
<polygon fill="#8dd3c7" stroke="#000000" points="1266.9734,-198 1263.9734,-202 1242.9734,-202 1239.9734,-198 1153.0266,-198 1153.0266,-162 1266.9734,-162 1266.9734,-198"/>
<text text-anchor="middle" x="1210" y="-175.8" font-family="Times,serif" font-size="14.00" fill="#000000">HivePageModule</text>
</g>
<!-- HivePageModule&#45;&gt;AppModule -->
<g id="edge4" class="edge">
<title>HivePageModule&#45;&gt;AppModule</title>
<path fill="none" stroke="#000000" d="M1181.5067,-198.2921C1181.5067,-220.2057 1181.5067,-254 1181.5067,-254 1181.5067,-254 755.957,-254 755.957,-254"/>
<polygon fill="#000000" stroke="#000000" points="755.9571,-250.5001 745.957,-254 755.957,-257.5001 755.9571,-250.5001"/>
</g>
<!-- HivePage  -->
<g id="node24" class="node">
<title>HivePage </title>
<polygon fill="#fb8072" stroke="#000000" points="1518.9236,-266 1445.0764,-266 1445.0764,-230 1518.9236,-230 1518.9236,-266"/>
<text text-anchor="middle" x="1482" y="-243.8" font-family="Times,serif" font-size="14.00" fill="#000000">HivePage </text>
</g>
<!-- HivePageModule&#45;&gt;HivePage  -->
<g id="edge18" class="edge">
<title>HivePageModule&#45;&gt;HivePage </title>
<path fill="none" stroke="#000000" stroke-dasharray="5,2" d="M1238.4934,-198.027C1238.4934,-214.3976 1238.4934,-236 1238.4934,-236 1238.4934,-236 1435.0166,-236 1435.0166,-236"/>
<polygon fill="#000000" stroke="#000000" points="1435.0166,-239.5001 1445.0166,-236 1435.0165,-232.5001 1435.0166,-239.5001"/>
</g>
<!-- MenuPageModule -->
<g id="node6" class="node">
<title>MenuPageModule</title>
<polygon fill="#8dd3c7" stroke="#000000" points="1404.9215,-198 1401.9215,-202 1380.9215,-202 1377.9215,-198 1285.0785,-198 1285.0785,-162 1404.9215,-162 1404.9215,-198"/>
<text text-anchor="middle" x="1345" y="-175.8" font-family="Times,serif" font-size="14.00" fill="#000000">MenuPageModule</text>
</g>
<!-- MenuPageModule&#45;&gt;AppModule -->
<g id="edge5" class="edge">
<title>MenuPageModule&#45;&gt;AppModule</title>
<path fill="none" stroke="#000000" d="M1315.1448,-198.1532C1315.1448,-221.7566 1315.1448,-260 1315.1448,-260 1315.1448,-260 756.0065,-260 756.0065,-260"/>
<polygon fill="#000000" stroke="#000000" points="756.0065,-256.5001 746.0065,-260 756.0064,-263.5001 756.0065,-256.5001"/>
</g>
<!-- MenuPage  -->
<g id="node32" class="node">
<title>MenuPage </title>
<polygon fill="#fb8072" stroke="#000000" points="1732.8719,-266 1653.1281,-266 1653.1281,-230 1732.8719,-230 1732.8719,-266"/>
<text text-anchor="middle" x="1693" y="-243.8" font-family="Times,serif" font-size="14.00" fill="#000000">MenuPage </text>
</g>
<!-- MenuPageModule&#45;&gt;MenuPage  -->
<g id="edge23" class="edge">
<title>MenuPageModule&#45;&gt;MenuPage </title>
<path fill="none" stroke="#000000" stroke-dasharray="5,2" d="M1374.8552,-198.1944C1374.8552,-206.2782 1374.8552,-214 1374.8552,-214 1374.8552,-214 1693,-214 1693,-214 1693,-214 1693,-219.8056 1693,-219.8056"/>
<polygon fill="#000000" stroke="#000000" points="1689.5001,-219.8055 1693,-229.8056 1696.5001,-219.8056 1689.5001,-219.8055"/>
</g>
<!-- MoreButtonPageModule -->
<g id="node7" class="node">
<title>MoreButtonPageModule</title>
<polygon fill="#8dd3c7" stroke="#000000" points="954.6993,-198 951.6993,-202 930.6993,-202 927.6993,-198 799.3007,-198 799.3007,-162 954.6993,-162 954.6993,-198"/>
<text text-anchor="middle" x="877" y="-175.8" font-family="Times,serif" font-size="14.00" fill="#000000">MoreButtonPageModule</text>
</g>
<!-- MoreButtonPageModule&#45;&gt;AppModule -->
<g id="edge6" class="edge">
<title>MoreButtonPageModule&#45;&gt;AppModule</title>
<path fill="none" stroke="#000000" d="M877,-198.2667C877,-216.5552 877,-242 877,-242 877,-242 755.8785,-242 755.8785,-242"/>
<polygon fill="#000000" stroke="#000000" points="755.8785,-238.5001 745.8785,-242 755.8784,-245.5001 755.8785,-238.5001"/>
</g>
<!-- SmileyPickerPageModule -->
<g id="node8" class="node">
<title>SmileyPickerPageModule</title>
<polygon fill="#8dd3c7" stroke="#000000" points="1135.1937,-198 1132.1937,-202 1111.1937,-202 1108.1937,-198 972.8063,-198 972.8063,-162 1135.1937,-162 1135.1937,-198"/>
<text text-anchor="middle" x="1054" y="-175.8" font-family="Times,serif" font-size="14.00" fill="#000000">SmileyPickerPageModule</text>
</g>
<!-- SmileyPickerPageModule&#45;&gt;AppModule -->
<g id="edge7" class="edge">
<title>SmileyPickerPageModule&#45;&gt;AppModule</title>
<path fill="none" stroke="#000000" d="M1054,-198.2228C1054,-218.3652 1054,-248 1054,-248 1054,-248 755.8705,-248 755.8705,-248"/>
<polygon fill="#000000" stroke="#000000" points="755.8706,-244.5001 745.8705,-248 755.8705,-251.5001 755.8706,-244.5001"/>
</g>
<!-- FireAuthService -->
<g id="node10" class="node">
<title>FireAuthService</title>
<ellipse fill="#fdb462" stroke="#000000" cx="99" cy="-180" rx="74.7149" ry="18"/>
<text text-anchor="middle" x="99" y="-175.8" font-family="Times,serif" font-size="14.00" fill="#000000">FireAuthService</text>
</g>
<!-- FireAuthService&#45;&gt;AppModule -->
<g id="edge9" class="edge">
<title>FireAuthService&#45;&gt;AppModule</title>
<path fill="none" stroke="#000000" d="M99,-198.3228C99,-221.6602 99,-259 99,-259 99,-259 651.9379,-259 651.9379,-259"/>
<polygon fill="#000000" stroke="#000000" points="651.9379,-262.5001 661.9379,-259 651.9379,-255.5001 651.9379,-262.5001"/>
</g>
<!-- FireDbService -->
<g id="node11" class="node">
<title>FireDbService</title>
<ellipse fill="#fdb462" stroke="#000000" cx="259" cy="-180" rx="67.1907" ry="18"/>
<text text-anchor="middle" x="259" y="-175.8" font-family="Times,serif" font-size="14.00" fill="#000000">FireDbService</text>
</g>
<!-- FireDbService&#45;&gt;AppModule -->
<g id="edge10" class="edge">
<title>FireDbService&#45;&gt;AppModule</title>
<path fill="none" stroke="#000000" d="M259,-198.1686C259,-219.498 259,-252 259,-252 259,-252 652.1355,-252 652.1355,-252"/>
<polygon fill="#000000" stroke="#000000" points="652.1355,-255.5001 662.1355,-252 652.1354,-248.5001 652.1355,-255.5001"/>
</g>
<!-- AuthenticationPage -->
<g id="node12" class="node">
<title>AuthenticationPage</title>
<polygon fill="#ffffb3" stroke="#000000" points="1585.4159,-122 1458.5841,-122 1458.5841,-86 1585.4159,-86 1585.4159,-122"/>
<text text-anchor="middle" x="1522" y="-99.8" font-family="Times,serif" font-size="14.00" fill="#000000">AuthenticationPage</text>
</g>
<!-- AuthenticationPageModule -->
<g id="node13" class="node">
<title>AuthenticationPageModule</title>
<polygon fill="#8dd3c7" stroke="#000000" points="1606.965,-198 1603.965,-202 1582.965,-202 1579.965,-198 1437.035,-198 1437.035,-162 1606.965,-162 1606.965,-198"/>
<text text-anchor="middle" x="1522" y="-175.8" font-family="Times,serif" font-size="14.00" fill="#000000">AuthenticationPageModule</text>
</g>
<!-- AuthenticationPage&#45;&gt;AuthenticationPageModule -->
<g id="edge11" class="edge">
<title>AuthenticationPage&#45;&gt;AuthenticationPageModule</title>
<path fill="none" stroke="#000000" d="M1522,-122.0109C1522,-122.0109 1522,-151.855 1522,-151.855"/>
<polygon fill="#000000" stroke="#000000" points="1518.5001,-151.8549 1522,-161.855 1525.5001,-151.855 1518.5001,-151.8549"/>
</g>
<!-- ColorPickerPage -->
<g id="node14" class="node">
<title>ColorPickerPage</title>
<polygon fill="#ffffb3" stroke="#000000" points="759.3627,-122 648.6373,-122 648.6373,-86 759.3627,-86 759.3627,-122"/>
<text text-anchor="middle" x="704" y="-99.8" font-family="Times,serif" font-size="14.00" fill="#000000">ColorPickerPage</text>
</g>
<!-- ColorPickerPage&#45;&gt;ColorPickerPageModule -->
<g id="edge12" class="edge">
<title>ColorPickerPage&#45;&gt;ColorPickerPageModule</title>
<path fill="none" stroke="#000000" d="M704,-122.0109C704,-122.0109 704,-151.855 704,-151.855"/>
<polygon fill="#000000" stroke="#000000" points="700.5001,-151.8549 704,-161.855 707.5001,-151.855 700.5001,-151.8549"/>
</g>
<!-- EntryPage -->
<g id="node15" class="node">
<title>EntryPage</title>
<polygon fill="#ffffb3" stroke="#000000" points="1727.3163,-122 1652.6837,-122 1652.6837,-86 1727.3163,-86 1727.3163,-122"/>
<text text-anchor="middle" x="1690" y="-99.8" font-family="Times,serif" font-size="14.00" fill="#000000">EntryPage</text>
</g>
<!-- EntryPageModule -->
<g id="node16" class="node">
<title>EntryPageModule</title>
<polygon fill="#8dd3c7" stroke="#000000" points="1748.8655,-198 1745.8655,-202 1724.8655,-202 1721.8655,-198 1631.1345,-198 1631.1345,-162 1748.8655,-162 1748.8655,-198"/>
<text text-anchor="middle" x="1690" y="-175.8" font-family="Times,serif" font-size="14.00" fill="#000000">EntryPageModule</text>
</g>
<!-- EntryPage&#45;&gt;EntryPageModule -->
<g id="edge13" class="edge">
<title>EntryPage&#45;&gt;EntryPageModule</title>
<path fill="none" stroke="#000000" d="M1690,-122.0109C1690,-122.0109 1690,-151.855 1690,-151.855"/>
<polygon fill="#000000" stroke="#000000" points="1686.5001,-151.8549 1690,-161.855 1693.5001,-151.855 1686.5001,-151.8549"/>
</g>
<!-- HiveCardFormPage -->
<g id="node17" class="node">
<title>HiveCardFormPage</title>
<polygon fill="#ffffb3" stroke="#000000" points="1922.9692,-122 1795.0308,-122 1795.0308,-86 1922.9692,-86 1922.9692,-122"/>
<text text-anchor="middle" x="1859" y="-99.8" font-family="Times,serif" font-size="14.00" fill="#000000">HiveCardFormPage</text>
</g>
<!-- HiveCardFormPageModule -->
<g id="node18" class="node">
<title>HiveCardFormPageModule</title>
<polygon fill="#8dd3c7" stroke="#000000" points="1944.5197,-198 1941.5197,-202 1920.5197,-202 1917.5197,-198 1773.4803,-198 1773.4803,-162 1944.5197,-162 1944.5197,-198"/>
<text text-anchor="middle" x="1859" y="-175.8" font-family="Times,serif" font-size="14.00" fill="#000000">HiveCardFormPageModule</text>
</g>
<!-- HiveCardFormPage&#45;&gt;HiveCardFormPageModule -->
<g id="edge14" class="edge">
<title>HiveCardFormPage&#45;&gt;HiveCardFormPageModule</title>
<path fill="none" stroke="#000000" d="M1859,-122.0109C1859,-122.0109 1859,-151.855 1859,-151.855"/>
<polygon fill="#000000" stroke="#000000" points="1855.5001,-151.8549 1859,-161.855 1862.5001,-151.855 1855.5001,-151.8549"/>
</g>
<!-- HivedetailPage -->
<g id="node19" class="node">
<title>HivedetailPage</title>
<polygon fill="#ffffb3" stroke="#000000" points="2092.5257,-122 1991.4743,-122 1991.4743,-86 2092.5257,-86 2092.5257,-122"/>
<text text-anchor="middle" x="2042" y="-99.8" font-family="Times,serif" font-size="14.00" fill="#000000">HivedetailPage</text>
</g>
<!-- HivedetailPageModule -->
<g id="node20" class="node">
<title>HivedetailPageModule</title>
<polygon fill="#8dd3c7" stroke="#000000" points="2114.5744,-198 2111.5744,-202 2090.5744,-202 2087.5744,-198 1969.4256,-198 1969.4256,-162 2114.5744,-162 2114.5744,-198"/>
<text text-anchor="middle" x="2042" y="-175.8" font-family="Times,serif" font-size="14.00" fill="#000000">HivedetailPageModule</text>
</g>
<!-- HivedetailPage&#45;&gt;HivedetailPageModule -->
<g id="edge15" class="edge">
<title>HivedetailPage&#45;&gt;HivedetailPageModule</title>
<path fill="none" stroke="#000000" d="M2042,-122.0109C2042,-122.0109 2042,-151.855 2042,-151.855"/>
<polygon fill="#000000" stroke="#000000" points="2038.5001,-151.8549 2042,-161.855 2045.5001,-151.855 2038.5001,-151.8549"/>
</g>
<!-- HiveFormPage -->
<g id="node21" class="node">
<title>HiveFormPage</title>
<polygon fill="#ffffb3" stroke="#000000" points="2261.2577,-122 2160.7423,-122 2160.7423,-86 2261.2577,-86 2261.2577,-122"/>
<text text-anchor="middle" x="2211" y="-99.8" font-family="Times,serif" font-size="14.00" fill="#000000">HiveFormPage</text>
</g>
<!-- HiveFormPageModule -->
<g id="node22" class="node">
<title>HiveFormPageModule</title>
<polygon fill="#8dd3c7" stroke="#000000" points="2283.3075,-198 2280.3075,-202 2259.3075,-202 2256.3075,-198 2138.6925,-198 2138.6925,-162 2283.3075,-162 2283.3075,-198"/>
<text text-anchor="middle" x="2211" y="-175.8" font-family="Times,serif" font-size="14.00" fill="#000000">HiveFormPageModule</text>
</g>
<!-- HiveFormPage&#45;&gt;HiveFormPageModule -->
<g id="edge16" class="edge">
<title>HiveFormPage&#45;&gt;HiveFormPageModule</title>
<path fill="none" stroke="#000000" d="M2211,-122.0109C2211,-122.0109 2211,-151.855 2211,-151.855"/>
<polygon fill="#000000" stroke="#000000" points="2207.5001,-151.8549 2211,-161.855 2214.5001,-151.855 2207.5001,-151.8549"/>
</g>
<!-- HivePage -->
<g id="node23" class="node">
<title>HivePage</title>
<polygon fill="#ffffb3" stroke="#000000" points="1613.4249,-266 1542.5751,-266 1542.5751,-230 1613.4249,-230 1613.4249,-266"/>
<text text-anchor="middle" x="1578" y="-243.8" font-family="Times,serif" font-size="14.00" fill="#000000">HivePage</text>
</g>
<!-- HivePage&#45;&gt;HivePageModule -->
<g id="edge17" class="edge">
<title>HivePage&#45;&gt;HivePageModule</title>
<path fill="none" stroke="#000000" d="M1574.8854,-229.9421C1574.8854,-225.5055 1574.8854,-222 1574.8854,-222 1574.8854,-222 1210,-222 1210,-222 1210,-222 1210,-208.0555 1210,-208.0555"/>
<polygon fill="#000000" stroke="#000000" points="1213.5001,-208.0555 1210,-198.0555 1206.5001,-208.0556 1213.5001,-208.0555"/>
</g>
<!-- InvitePage -->
<g id="node25" class="node">
<title>InvitePage</title>
<polygon fill="#ffffb3" stroke="#000000" points="2404.8683,-122 2329.1317,-122 2329.1317,-86 2404.8683,-86 2404.8683,-122"/>
<text text-anchor="middle" x="2367" y="-99.8" font-family="Times,serif" font-size="14.00" fill="#000000">InvitePage</text>
</g>
<!-- InvitePageModule -->
<g id="node26" class="node">
<title>InvitePageModule</title>
<polygon fill="#8dd3c7" stroke="#000000" points="2426.9187,-198 2423.9187,-202 2402.9187,-202 2399.9187,-198 2307.0813,-198 2307.0813,-162 2426.9187,-162 2426.9187,-198"/>
<text text-anchor="middle" x="2367" y="-175.8" font-family="Times,serif" font-size="14.00" fill="#000000">InvitePageModule</text>
</g>
<!-- InvitePage&#45;&gt;InvitePageModule -->
<g id="edge19" class="edge">
<title>InvitePage&#45;&gt;InvitePageModule</title>
<path fill="none" stroke="#000000" d="M2367,-122.0109C2367,-122.0109 2367,-151.855 2367,-151.855"/>
<polygon fill="#000000" stroke="#000000" points="2363.5001,-151.8549 2367,-161.855 2370.5001,-151.855 2363.5001,-151.8549"/>
</g>
<!-- LoginPage -->
<g id="node27" class="node">
<title>LoginPage</title>
<polygon fill="#ffffb3" stroke="#000000" points="2549.1558,-122 2472.8442,-122 2472.8442,-86 2549.1558,-86 2549.1558,-122"/>
<text text-anchor="middle" x="2511" y="-99.8" font-family="Times,serif" font-size="14.00" fill="#000000">LoginPage</text>
</g>
<!-- LoginPageModule -->
<g id="node28" class="node">
<title>LoginPageModule</title>
<polygon fill="#8dd3c7" stroke="#000000" points="2571.205,-198 2568.205,-202 2547.205,-202 2544.205,-198 2450.795,-198 2450.795,-162 2571.205,-162 2571.205,-198"/>
<text text-anchor="middle" x="2511" y="-175.8" font-family="Times,serif" font-size="14.00" fill="#000000">LoginPageModule</text>
</g>
<!-- LoginPage&#45;&gt;LoginPageModule -->
<g id="edge20" class="edge">
<title>LoginPage&#45;&gt;LoginPageModule</title>
<path fill="none" stroke="#000000" d="M2511,-122.0109C2511,-122.0109 2511,-151.855 2511,-151.855"/>
<polygon fill="#000000" stroke="#000000" points="2507.5001,-151.8549 2511,-161.855 2514.5001,-151.855 2507.5001,-151.8549"/>
</g>
<!-- MainPage -->
<g id="node29" class="node">
<title>MainPage</title>
<polygon fill="#ffffb3" stroke="#000000" points="2689.262,-122 2616.738,-122 2616.738,-86 2689.262,-86 2689.262,-122"/>
<text text-anchor="middle" x="2653" y="-99.8" font-family="Times,serif" font-size="14.00" fill="#000000">MainPage</text>
</g>
<!-- MainPageModule -->
<g id="node30" class="node">
<title>MainPageModule</title>
<polygon fill="#8dd3c7" stroke="#000000" points="2711.3118,-198 2708.3118,-202 2687.3118,-202 2684.3118,-198 2594.6882,-198 2594.6882,-162 2711.3118,-162 2711.3118,-198"/>
<text text-anchor="middle" x="2653" y="-175.8" font-family="Times,serif" font-size="14.00" fill="#000000">MainPageModule</text>
</g>
<!-- MainPage&#45;&gt;MainPageModule -->
<g id="edge21" class="edge">
<title>MainPage&#45;&gt;MainPageModule</title>
<path fill="none" stroke="#000000" d="M2653,-122.0109C2653,-122.0109 2653,-151.855 2653,-151.855"/>
<polygon fill="#000000" stroke="#000000" points="2649.5001,-151.8549 2653,-161.855 2656.5001,-151.855 2649.5001,-151.8549"/>
</g>
<!-- MenuPage -->
<g id="node31" class="node">
<title>MenuPage</title>
<polygon fill="#ffffb3" stroke="#000000" points="1832.8711,-266 1757.1289,-266 1757.1289,-230 1832.8711,-230 1832.8711,-266"/>
<text text-anchor="middle" x="1795" y="-243.8" font-family="Times,serif" font-size="14.00" fill="#000000">MenuPage</text>
</g>
<!-- MenuPage&#45;&gt;MenuPageModule -->
<g id="edge22" class="edge">
<title>MenuPage&#45;&gt;MenuPageModule</title>
<path fill="none" stroke="#000000" d="M1765.1525,-229.9445C1765.1525,-218.561 1765.1525,-206 1765.1525,-206 1765.1525,-206 1345,-206 1345,-206 1345,-206 1345,-205.2058 1345,-205.2058"/>
<polygon fill="#000000" stroke="#000000" points="1348.5001,-208.0578 1345,-198.0579 1341.5001,-208.0579 1348.5001,-208.0578"/>
</g>
<!-- MoreButtonPage -->
<g id="node33" class="node">
<title>MoreButtonPage</title>
<polygon fill="#ffffb3" stroke="#000000" points="932.6499,-122 821.3501,-122 821.3501,-86 932.6499,-86 932.6499,-122"/>
<text text-anchor="middle" x="877" y="-99.8" font-family="Times,serif" font-size="14.00" fill="#000000">MoreButtonPage</text>
</g>
<!-- MoreButtonPage&#45;&gt;MoreButtonPageModule -->
<g id="edge24" class="edge">
<title>MoreButtonPage&#45;&gt;MoreButtonPageModule</title>
<path fill="none" stroke="#000000" d="M877,-122.0109C877,-122.0109 877,-151.855 877,-151.855"/>
<polygon fill="#000000" stroke="#000000" points="873.5001,-151.8549 877,-161.855 880.5001,-151.855 873.5001,-151.8549"/>
</g>
<!-- SettingsPage -->
<g id="node34" class="node">
<title>SettingsPage</title>
<polygon fill="#ffffb3" stroke="#000000" points="2845.326,-122 2756.674,-122 2756.674,-86 2845.326,-86 2845.326,-122"/>
<text text-anchor="middle" x="2801" y="-99.8" font-family="Times,serif" font-size="14.00" fill="#000000">SettingsPage</text>
</g>
<!-- SettingsPageModule -->
<g id="node35" class="node">
<title>SettingsPageModule</title>
<polygon fill="#8dd3c7" stroke="#000000" points="2866.8753,-198 2863.8753,-202 2842.8753,-202 2839.8753,-198 2735.1247,-198 2735.1247,-162 2866.8753,-162 2866.8753,-198"/>
<text text-anchor="middle" x="2801" y="-175.8" font-family="Times,serif" font-size="14.00" fill="#000000">SettingsPageModule</text>
</g>
<!-- SettingsPage&#45;&gt;SettingsPageModule -->
<g id="edge25" class="edge">
<title>SettingsPage&#45;&gt;SettingsPageModule</title>
<path fill="none" stroke="#000000" d="M2801,-122.0109C2801,-122.0109 2801,-151.855 2801,-151.855"/>
<polygon fill="#000000" stroke="#000000" points="2797.5001,-151.8549 2801,-161.855 2804.5001,-151.855 2797.5001,-151.8549"/>
</g>
<!-- SmileyPickerPage -->
<g id="node36" class="node">
<title>SmileyPickerPage</title>
<polygon fill="#ffffb3" stroke="#000000" points="1113.1443,-122 994.8557,-122 994.8557,-86 1113.1443,-86 1113.1443,-122"/>
<text text-anchor="middle" x="1054" y="-99.8" font-family="Times,serif" font-size="14.00" fill="#000000">SmileyPickerPage</text>
</g>
<!-- SmileyPickerPage&#45;&gt;SmileyPickerPageModule -->
<g id="edge26" class="edge">
<title>SmileyPickerPage&#45;&gt;SmileyPickerPageModule</title>
<path fill="none" stroke="#000000" d="M1054,-122.0109C1054,-122.0109 1054,-151.855 1054,-151.855"/>
<polygon fill="#000000" stroke="#000000" points="1050.5001,-151.8549 1054,-161.855 1057.5001,-151.855 1050.5001,-151.8549"/>
</g>
<!-- LoadingScreenComponent -->
<g id="node37" class="node">
<title>LoadingScreenComponent</title>
<polygon fill="#ffffb3" stroke="#000000" points="3199.0772,-122 3032.9228,-122 3032.9228,-86 3199.0772,-86 3199.0772,-122"/>
<text text-anchor="middle" x="3116" y="-99.8" font-family="Times,serif" font-size="14.00" fill="#000000">LoadingScreenComponent</text>
</g>
<!-- StartLoadingPageModule -->
<g id="node39" class="node">
<title>StartLoadingPageModule</title>
<polygon fill="#8dd3c7" stroke="#000000" points="3122.8585,-198 3119.8585,-202 3098.8585,-202 3095.8585,-198 2963.1415,-198 2963.1415,-162 3122.8585,-162 3122.8585,-198"/>
<text text-anchor="middle" x="3043" y="-175.8" font-family="Times,serif" font-size="14.00" fill="#000000">StartLoadingPageModule</text>
</g>
<!-- LoadingScreenComponent&#45;&gt;StartLoadingPageModule -->
<g id="edge27" class="edge">
<title>LoadingScreenComponent&#45;&gt;StartLoadingPageModule</title>
<path fill="none" stroke="#000000" d="M3077.9453,-122.0109C3077.9453,-122.0109 3077.9453,-151.855 3077.9453,-151.855"/>
<polygon fill="#000000" stroke="#000000" points="3074.4454,-151.8549 3077.9453,-161.855 3081.4454,-151.855 3074.4454,-151.8549"/>
</g>
<!-- StartLoadingPage -->
<g id="node38" class="node">
<title>StartLoadingPage</title>
<polygon fill="#ffffb3" stroke="#000000" points="3015.309,-122 2898.691,-122 2898.691,-86 3015.309,-86 3015.309,-122"/>
<text text-anchor="middle" x="2957" y="-99.8" font-family="Times,serif" font-size="14.00" fill="#000000">StartLoadingPage</text>
</g>
<!-- StartLoadingPage&#45;&gt;StartLoadingPageModule -->
<g id="edge28" class="edge">
<title>StartLoadingPage&#45;&gt;StartLoadingPageModule</title>
<path fill="none" stroke="#000000" d="M2989.1126,-122.0109C2989.1126,-122.0109 2989.1126,-151.855 2989.1126,-151.855"/>
<polygon fill="#000000" stroke="#000000" points="2985.6126,-151.8549 2989.1126,-161.855 2992.6126,-151.855 2985.6126,-151.8549"/>
</g>
</g>
</svg>
